<?xml version="1.0" standalone="no"?>
<svg xmlns:xlink="http://www.w3.org/1999/xlink" id="wave" style="transform:rotate(180deg); transition: 0.3s" viewBox="0 0 1440 370" version="1.1" xmlns="http://www.w3.org/2000/svg"><defs><linearGradient id="sw-gradient-0" x1="0" x2="0" y1="1" y2="0"><stop stop-color="rgba(255, 249, 234, 1)" offset="0%"/><stop stop-color="rgba(255, 249, 234, 1)" offset="100%"/></linearGradient></defs><path style="transform:translate(0, 0px); opacity:1" fill="url(#sw-gradient-0)" d="M0,148L20,160.3C40,173,80,197,120,228.2C160,259,200,296,240,296C280,296,320,259,360,222C400,185,440,148,480,148C520,148,560,185,600,178.8C640,173,680,123,720,123.3C760,123,800,173,840,178.8C880,185,920,148,960,117.2C1000,86,1040,62,1080,92.5C1120,123,1160,210,1200,222C1240,234,1280,173,1320,148C1360,123,1400,136,1440,166.5C1480,197,1520,247,1560,252.8C1600,259,1640,222,1680,185C1720,148,1760,111,1800,123.3C1840,136,1880,197,1920,234.3C1960,271,2000,284,2040,289.8C2080,296,2120,296,2160,302.2C2200,308,2240,321,2280,302.2C2320,284,2360,234,2400,228.2C2440,222,2480,259,2520,277.5C2560,296,2600,296,2640,259C2680,222,2720,148,2760,135.7C2800,123,2840,173,2860,197.3L2880,222L2880,370L2860,370C2840,370,2800,370,2760,370C2720,370,2680,370,2640,370C2600,370,2560,370,2520,370C2480,370,2440,370,2400,370C2360,370,2320,370,2280,370C2240,370,2200,370,2160,370C2120,370,2080,370,2040,370C2000,370,1960,370,1920,370C1880,370,1840,370,1800,370C1760,370,1720,370,1680,370C1640,370,1600,370,1560,370C1520,370,1480,370,1440,370C1400,370,1360,370,1320,370C1280,370,1240,370,1200,370C1160,370,1120,370,1080,370C1040,370,1000,370,960,370C920,370,880,370,840,370C800,370,760,370,720,370C680,370,640,370,600,370C560,370,520,370,480,370C440,370,400,370,360,370C320,370,280,370,240,370C200,370,160,370,120,370C80,370,40,370,20,370L0,370Z"/></svg>